# xmcd CD database file generated by OrangeCD 6.3
#
# Track frame offsets:
#	150
#	12839
#	24222
#	38495
#	53208
#	64934
#
# Disc length: 1031 seconds
#
# Revision: 1
# Processed by: cddbd v1.5.2PL0 Copyright (c) Steve Scherf et al.
# Submitted via: OrangeCD 6.3
#
DISCID=3e040506
DTITLE=The Dean Brothers - Let's Dance Xmas
DYEAR=1999
DGENRE=Christmas/Holiday
TTITLE0=Rudolf The Red Nosed Reindeer
TTITLE1=Mary's Boy Child
TTITLE2=Silent Night
TTITLE3=Blue Xmas
TTITLE4=Winter Wonderland
TTITLE5=Hi-Tech Santa
EXTD=
EXTT0=
EXTT1=
EXTT2=
EXTT3=
EXTT4=
EXTT5=
PLAYORDER=
